<mxfile host="app.diagrams.net" modified="2024-01-01T01:12:49.192Z" agent="Mozilla/5.0 (Windows NT 10.0; Win64; x64) AppleWebKit/537.36 (KHTML, like Gecko) Chrome/120.0.0.0 Safari/537.36" etag="wFT5L2isV40Z9LuIjw2Y" version="22.1.16" type="device">
  <diagram name="Page-1" id="hrp_5UvZl1f-MFLio78j">
    <mxGraphModel dx="287" dy="1295" grid="1" gridSize="10" guides="1" tooltips="1" connect="1" arrows="1" fold="1" page="1" pageScale="1" pageWidth="827" pageHeight="1169" math="0" shadow="0">
      <root>
        <mxCell id="0" />
        <mxCell id="1" parent="0" />
        <mxCell id="vpNG5Egz6Iyu_Kw6x0YY-3" style="edgeStyle=orthogonalEdgeStyle;rounded=0;orthogonalLoop=1;jettySize=auto;html=1;entryX=0.5;entryY=0;entryDx=0;entryDy=0;fontFamily=Times New Roman;fontStyle=1;align=center;labelBorderColor=none;" parent="1" source="vpNG5Egz6Iyu_Kw6x0YY-1" target="vpNG5Egz6Iyu_Kw6x0YY-2" edge="1">
          <mxGeometry relative="1" as="geometry" />
        </mxCell>
        <mxCell id="vpNG5Egz6Iyu_Kw6x0YY-1" value="User Input&lt;br&gt;&lt;div style=&quot;&quot;&gt;&lt;span style=&quot;font-size: 8px; background-color: initial;&quot;&gt;Enter Player Names&lt;/span&gt;&lt;/div&gt;&lt;font style=&quot;font-size: 8px;&quot;&gt;&lt;div style=&quot;&quot;&gt;&lt;span style=&quot;background-color: initial;&quot;&gt;Enter Board Size&lt;/span&gt;&lt;/div&gt;&lt;/font&gt;" style="rounded=1;whiteSpace=wrap;html=1;fontFamily=Times New Roman;fontStyle=1;align=center;labelBorderColor=none;" parent="1" vertex="1">
          <mxGeometry x="216" y="100" width="120" height="60" as="geometry" />
        </mxCell>
        <mxCell id="vpNG5Egz6Iyu_Kw6x0YY-9" style="edgeStyle=orthogonalEdgeStyle;rounded=0;orthogonalLoop=1;jettySize=auto;html=1;entryX=0.5;entryY=0;entryDx=0;entryDy=0;fontFamily=Times New Roman;fontStyle=1;align=center;labelBorderColor=none;" parent="1" source="vpNG5Egz6Iyu_Kw6x0YY-2" target="vpNG5Egz6Iyu_Kw6x0YY-5" edge="1">
          <mxGeometry relative="1" as="geometry" />
        </mxCell>
        <mxCell id="vpNG5Egz6Iyu_Kw6x0YY-2" value="Game Board" style="rounded=1;whiteSpace=wrap;html=1;fontFamily=Times New Roman;fontStyle=1;align=center;labelBorderColor=none;" parent="1" vertex="1">
          <mxGeometry x="216" y="190" width="120" height="30" as="geometry" />
        </mxCell>
        <mxCell id="vpNG5Egz6Iyu_Kw6x0YY-4" value="Clicks Start button" style="text;html=1;align=center;verticalAlign=middle;resizable=0;points=[];autosize=1;strokeColor=none;fillColor=none;fontSize=7;fontFamily=Times New Roman;fontStyle=1;labelBorderColor=none;" parent="1" vertex="1">
          <mxGeometry x="201" y="163" width="80" height="20" as="geometry" />
        </mxCell>
        <mxCell id="vpNG5Egz6Iyu_Kw6x0YY-5" value="Board State Change&lt;br&gt;&lt;div style=&quot;font-size: 7px;&quot;&gt;&lt;span style=&quot;background-color: initial;&quot;&gt;&lt;font style=&quot;font-size: 7px;&quot;&gt;- Current Player Swap&lt;/font&gt;&lt;/span&gt;&lt;/div&gt;&lt;div style=&quot;font-size: 7px;&quot;&gt;&lt;span style=&quot;background-color: initial;&quot;&gt;&lt;font style=&quot;font-size: 7px;&quot;&gt;- Cell Filled&lt;/font&gt;&lt;/span&gt;&lt;/div&gt;" style="rounded=1;whiteSpace=wrap;html=1;fontFamily=Times New Roman;fontStyle=1;align=center;labelBorderColor=none;" parent="1" vertex="1">
          <mxGeometry x="190" y="290" width="172" height="60" as="geometry" />
        </mxCell>
        <mxCell id="vpNG5Egz6Iyu_Kw6x0YY-10" value="&lt;font style=&quot;font-size: 5px;&quot;&gt;Cell Clicked&amp;nbsp;&lt;/font&gt;" style="text;html=1;align=center;verticalAlign=middle;resizable=0;points=[];autosize=1;strokeColor=none;fillColor=none;fontFamily=Times New Roman;fontStyle=1;labelBorderColor=none;" parent="1" vertex="1">
          <mxGeometry x="286" y="220" width="50" height="30" as="geometry" />
        </mxCell>
        <mxCell id="vpNG5Egz6Iyu_Kw6x0YY-12" value="Message Popup" style="rounded=0;whiteSpace=wrap;html=1;fontSize=7;fontFamily=Times New Roman;fontStyle=1;align=center;labelBorderColor=none;" parent="1" vertex="1">
          <mxGeometry x="392" y="250" width="40" height="30" as="geometry" />
        </mxCell>
        <mxCell id="vpNG5Egz6Iyu_Kw6x0YY-13" value="" style="endArrow=classic;html=1;rounded=0;fontFamily=Times New Roman;fontStyle=1;align=center;labelBorderColor=none;" parent="1" target="vpNG5Egz6Iyu_Kw6x0YY-12" edge="1">
          <mxGeometry width="50" height="50" relative="1" as="geometry">
            <mxPoint x="276" y="265" as="sourcePoint" />
            <mxPoint x="342" y="240" as="targetPoint" />
          </mxGeometry>
        </mxCell>
        <mxCell id="vpNG5Egz6Iyu_Kw6x0YY-15" value="If" style="text;html=1;align=center;verticalAlign=middle;resizable=0;points=[];autosize=1;strokeColor=none;fillColor=none;fontSize=7;fontFamily=Times New Roman;fontStyle=1;labelBorderColor=none;" parent="1" vertex="1">
          <mxGeometry x="306" y="250" width="30" height="20" as="geometry" />
        </mxCell>
        <mxCell id="vpNG5Egz6Iyu_Kw6x0YY-18" value="- Cell is Filled.&lt;br&gt;- Game Won /Tie" style="text;html=1;align=center;verticalAlign=top;resizable=0;points=[];autosize=1;strokeColor=none;fillColor=none;fontSize=3;fontFamily=Times New Roman;fontStyle=1;labelBorderColor=none;" parent="1" vertex="1">
          <mxGeometry x="306" y="260" width="50" height="20" as="geometry" />
        </mxCell>
        <mxCell id="njce3yzABHM6qHe3Wp5L-3" value="" style="endArrow=classic;html=1;rounded=0;exitX=0.5;exitY=1;exitDx=0;exitDy=0;fontFamily=Times New Roman;fontStyle=1;align=center;labelBorderColor=none;" parent="1" source="vpNG5Egz6Iyu_Kw6x0YY-5" edge="1">
          <mxGeometry width="50" height="50" relative="1" as="geometry">
            <mxPoint x="252" y="420" as="sourcePoint" />
            <mxPoint x="252" y="420" as="targetPoint" />
            <Array as="points" />
          </mxGeometry>
        </mxCell>
        <mxCell id="njce3yzABHM6qHe3Wp5L-4" value="" style="endArrow=classic;html=1;rounded=0;exitX=0.5;exitY=1;exitDx=0;exitDy=0;fontFamily=Times New Roman;fontStyle=1;align=center;labelBorderColor=none;" parent="1" source="vpNG5Egz6Iyu_Kw6x0YY-5" edge="1">
          <mxGeometry width="50" height="50" relative="1" as="geometry">
            <mxPoint x="286" y="360" as="sourcePoint" />
            <mxPoint x="302" y="420" as="targetPoint" />
          </mxGeometry>
        </mxCell>
        <mxCell id="njce3yzABHM6qHe3Wp5L-5" value="Win" style="text;html=1;align=center;verticalAlign=middle;resizable=0;points=[];autosize=1;strokeColor=none;fillColor=none;fontSize=8;fontFamily=Times New Roman;fontStyle=1;labelBorderColor=none;" parent="1" vertex="1">
          <mxGeometry x="221" y="380" width="40" height="20" as="geometry" />
        </mxCell>
        <mxCell id="njce3yzABHM6qHe3Wp5L-6" value="Tie" style="text;html=1;align=center;verticalAlign=middle;resizable=0;points=[];autosize=1;strokeColor=none;fillColor=none;fontSize=8;fontFamily=Times New Roman;fontStyle=1;labelBorderColor=none;" parent="1" vertex="1">
          <mxGeometry x="296" y="380" width="30" height="20" as="geometry" />
        </mxCell>
        <mxCell id="njce3yzABHM6qHe3Wp5L-8" style="edgeStyle=orthogonalEdgeStyle;rounded=0;orthogonalLoop=1;jettySize=auto;html=1;fontFamily=Times New Roman;fontStyle=1;align=center;labelBorderColor=none;" parent="1" source="njce3yzABHM6qHe3Wp5L-7" edge="1">
          <mxGeometry relative="1" as="geometry">
            <mxPoint x="382" y="440" as="targetPoint" />
          </mxGeometry>
        </mxCell>
        <mxCell id="njce3yzABHM6qHe3Wp5L-17" style="edgeStyle=orthogonalEdgeStyle;rounded=0;orthogonalLoop=1;jettySize=auto;html=1;entryX=0;entryY=0.5;entryDx=0;entryDy=0;fontFamily=Times New Roman;fontStyle=1;align=center;labelBorderColor=none;" parent="1" source="njce3yzABHM6qHe3Wp5L-7" target="njce3yzABHM6qHe3Wp5L-16" edge="1">
          <mxGeometry relative="1" as="geometry">
            <Array as="points">
              <mxPoint x="362" y="440" />
              <mxPoint x="362" y="490" />
            </Array>
          </mxGeometry>
        </mxCell>
        <mxCell id="njce3yzABHM6qHe3Wp5L-7" value="Game End" style="rounded=0;whiteSpace=wrap;html=1;fontSize=8;fontFamily=Times New Roman;fontStyle=1;align=center;labelBorderColor=none;" parent="1" vertex="1">
          <mxGeometry x="206" y="420" width="140" height="40" as="geometry" />
        </mxCell>
        <mxCell id="njce3yzABHM6qHe3Wp5L-9" value="Save Game data" style="rounded=0;whiteSpace=wrap;html=1;fontSize=7;fontFamily=Times New Roman;fontStyle=1;align=center;labelBorderColor=none;" parent="1" vertex="1">
          <mxGeometry x="382" y="420" width="70" height="40" as="geometry" />
        </mxCell>
        <mxCell id="njce3yzABHM6qHe3Wp5L-12" style="edgeStyle=orthogonalEdgeStyle;rounded=0;orthogonalLoop=1;jettySize=auto;html=1;entryX=0.5;entryY=0;entryDx=0;entryDy=0;fontFamily=Times New Roman;fontStyle=1;align=center;labelBorderColor=none;" parent="1" source="njce3yzABHM6qHe3Wp5L-11" target="vpNG5Egz6Iyu_Kw6x0YY-1" edge="1">
          <mxGeometry relative="1" as="geometry" />
        </mxCell>
        <mxCell id="njce3yzABHM6qHe3Wp5L-13" style="edgeStyle=orthogonalEdgeStyle;rounded=0;orthogonalLoop=1;jettySize=auto;html=1;entryX=-0.001;entryY=0.521;entryDx=0;entryDy=0;entryPerimeter=0;fontFamily=Times New Roman;fontStyle=1;align=center;labelBorderColor=none;" parent="1" source="njce3yzABHM6qHe3Wp5L-11" target="njce3yzABHM6qHe3Wp5L-14" edge="1">
          <mxGeometry relative="1" as="geometry">
            <mxPoint x="372" y="45" as="targetPoint" />
          </mxGeometry>
        </mxCell>
        <mxCell id="njce3yzABHM6qHe3Wp5L-11" value="&lt;font style=&quot;font-size: 13px;&quot;&gt;Home Screen&lt;/font&gt;" style="rounded=1;whiteSpace=wrap;html=1;fontFamily=Times New Roman;fontStyle=1;align=center;labelBorderColor=none;" parent="1" vertex="1">
          <mxGeometry x="216" y="30" width="120" height="30" as="geometry" />
        </mxCell>
        <mxCell id="njce3yzABHM6qHe3Wp5L-14" value="&lt;span&gt;Load Previous Game Data&lt;/span&gt;" style="rounded=1;whiteSpace=wrap;html=1;fontSize=8;fontFamily=Times New Roman;fontStyle=1;align=center;labelBorderColor=none;" parent="1" vertex="1">
          <mxGeometry x="362" y="30" width="120" height="30" as="geometry" />
        </mxCell>
        <mxCell id="njce3yzABHM6qHe3Wp5L-16" value="Replay" style="rounded=0;whiteSpace=wrap;html=1;fontSize=7;fontFamily=Times New Roman;fontStyle=1;align=center;labelBorderColor=none;" parent="1" vertex="1">
          <mxGeometry x="382" y="470" width="70" height="40" as="geometry" />
        </mxCell>
        <mxCell id="njce3yzABHM6qHe3Wp5L-18" value="Quit" style="rounded=0;whiteSpace=wrap;html=1;fontSize=7;fontFamily=Times New Roman;fontStyle=1;align=center;labelBorderColor=none;" parent="1" vertex="1">
          <mxGeometry x="382" y="520" width="70" height="40" as="geometry" />
        </mxCell>
        <mxCell id="njce3yzABHM6qHe3Wp5L-19" style="edgeStyle=orthogonalEdgeStyle;rounded=0;orthogonalLoop=1;jettySize=auto;html=1;entryX=0;entryY=0.5;entryDx=0;entryDy=0;fontFamily=Times New Roman;fontStyle=1;align=center;labelBorderColor=none;" parent="1" target="njce3yzABHM6qHe3Wp5L-18" edge="1">
          <mxGeometry relative="1" as="geometry">
            <mxPoint x="362" y="440" as="sourcePoint" />
            <mxPoint x="392" y="500" as="targetPoint" />
            <Array as="points">
              <mxPoint x="362" y="450" />
              <mxPoint x="362" y="540" />
            </Array>
          </mxGeometry>
        </mxCell>
        <mxCell id="xdyxsvlUVQJK1vRzxGZv-1" value="Flow Chart for the TIC-TAC-TOE Game" style="rounded=0;whiteSpace=wrap;html=1;fontFamily=Times New Roman;fontStyle=1;align=center;labelBorderColor=none;" vertex="1" parent="1">
          <mxGeometry x="150" y="-10" width="220" height="20" as="geometry" />
        </mxCell>
      </root>
    </mxGraphModel>
  </diagram>
</mxfile>
